<svg width="801" height="444" viewBox="0 0 801 444" fill="none" xmlns="http://www.w3.org/2000/svg">
<path d="M714.745 154.188C735.229 153.5 751.723 136.731 751.723 116.094V39.125C751.723 18.0446 734.571 0.908203 713.506 0.908203H82.929C61.8639 0.908203 44.7122 18.0446 44.7122 39.125V116.094C44.7122 137.174 61.8639 154.31 82.929 154.31H86.6896L4.79861 273.287C-0.123717 280.441 -0.582319 289.766 3.60624 297.348L77.487 431.26C81.5227 438.567 89.2272 443.092 97.5737 443.092C97.6807 443.092 97.803 443.092 97.91 443.092C106.379 442.954 114.099 438.185 117.966 430.633L134.078 399.25L134.95 407.397C137.09 427.438 154.532 443.092 174.649 443.092H621.786C641.903 443.092 659.345 427.438 661.501 407.382L663.213 391.01L683.544 430.633C687.412 438.185 695.132 442.985 703.6 443.092C703.707 443.092 703.83 443.092 703.937 443.092C712.283 443.092 719.973 438.552 724.008 431.26L797.889 297.348C802.062 289.766 801.619 280.441 796.697 273.287L714.745 154.188ZM633.801 233.266L593.307 154.31H642.163L633.801 233.266ZM90.5724 46.7684H705.863V108.45H569.765L548.547 67.1456C542.769 55.864 528.95 51.4461 517.668 57.2092C506.402 63.0029 501.953 76.8221 507.747 88.0884L518.218 108.466H283.307L293.763 88.0884C299.542 76.8374 295.093 63.0029 283.842 57.2092C272.561 51.4461 258.742 55.864 252.963 67.1456L231.761 108.45H90.5571L90.5724 46.7684ZM154.272 154.31H208.234L163.505 241.491L154.272 154.31ZM96.84 371.397L50.6129 287.611L112.708 197.388L125.258 315.983L96.84 371.397ZM616.451 397.262H180L172.326 324.773L259.781 154.341H541.745L624.966 316.564L616.451 397.262ZM704.671 371.397L672.018 307.774L684.4 190.968L750.913 287.611L704.671 371.397Z" fill="white"/>
<path d="M283.567 188.828C279.348 188.828 275.924 192.252 275.924 196.471V360.803C275.924 365.007 279.348 368.447 283.567 368.447C287.786 368.447 291.211 365.007 291.211 360.803V196.471C291.211 192.252 287.786 188.828 283.567 188.828Z" fill="white"/>
<path d="M388.663 188.828C384.444 188.828 381.02 192.252 381.02 196.471V360.803C381.02 365.007 384.444 368.447 388.663 368.447C392.883 368.447 396.307 365.007 396.307 360.803V196.471C396.307 192.252 392.883 188.828 388.663 188.828Z" fill="white"/>
<path d="M493.76 188.828C489.556 188.828 486.116 192.252 486.116 196.471V360.803C486.116 365.007 489.556 368.447 493.76 368.447C497.979 368.447 501.403 365.007 501.403 360.803V196.471C501.403 192.252 497.979 188.828 493.76 188.828Z" fill="white"/>
</svg>
